<svg xmlns="http://www.w3.org/2000/svg" viewBox="0 0 100 100" width="100" height="100">
  <!-- Tooth shape -->
  <path d="M50,10 C65,10 80,20 80,45 C80,65 70,90 60,90 C55,90 52.5,80 50,80 C47.5,80 45,90 40,90 C30,90 20,65 20,45 C20,20 35,10 50,10 Z" fill="#ffffff" stroke="#42b983" stroke-width="3" />
  
  <!-- Eyes -->
  <circle cx="35" cy="40" r="5" fill="#42b983" />
  <circle cx="65" cy="40" r="5" fill="#42b983" />
  
  <!-- Smile -->
  <path d="M35,60 Q50,75 65,60" fill="none" stroke="#42b983" stroke-width="3" stroke-linecap="round" />
  
  <!-- Sparkle -->
  <circle cx="75" cy="25" r="3" fill="#ffcc00" />
  <path d="M75,20 L75,30 M70,25 L80,25" stroke="#ffcc00" stroke-width="2" />
</svg>
